<?xml version="1.0" encoding="UTF-8" standalone="no"?>
<!-- Created with Inkscape (http://www.inkscape.org/) -->

<svg
   width="36.015373mm"
   height="13.320634mm"
   viewBox="0 0 36.015373 13.320634"
   version="1.1"
   id="svg1"
   inkscape:version="1.4-beta3 (01c8a1c, 2024-08-28, custom)"
   sodipodi:docname="lighthouse framework.svg.2024_11_06_13_25_14.1.svg"
   xml:space="preserve"
   inkscape:export-filename="reveal.png"
   inkscape:export-xdpi="200"
   inkscape:export-ydpi="200"
   inkscape:export-batch-path="C:\Users\tifukelison\Desktop\Design\Josh"
   inkscape:export-batch-name="lighthouse framework"
   xmlns:inkscape="http://www.inkscape.org/namespaces/inkscape"
   xmlns:sodipodi="http://sodipodi.sourceforge.net/DTD/sodipodi-0.dtd"
   xmlns="http://www.w3.org/2000/svg"
   xmlns:svg="http://www.w3.org/2000/svg"><sodipodi:namedview
     id="namedview1"
     pagecolor="#ffffff"
     bordercolor="#999999"
     borderopacity="1"
     inkscape:showpageshadow="2"
     inkscape:pageopacity="0"
     inkscape:pagecheckerboard="0"
     inkscape:deskcolor="#d1d1d1"
     inkscape:document-units="mm"
     inkscape:zoom="0.8585"
     inkscape:cx="-17616.191"
     inkscape:cy="15360.513"
     inkscape:window-width="1920"
     inkscape:window-height="974"
     inkscape:window-x="-11"
     inkscape:window-y="-11"
     inkscape:window-maximized="1"
     showguides="true"
     inkscape:current-layer="layer1"><sodipodi:guide
       position="-585.18596,-263.83296"
       orientation="1,0"
       id="guide9"
       inkscape:locked="false" /><sodipodi:guide
       position="-332.55215,1381.6515"
       orientation="1,0"
       id="guide10"
       inkscape:locked="false" /><sodipodi:guide
       position="-41.077355,1042.8222"
       orientation="0,-1"
       id="guide656"
       inkscape:locked="false" /><sodipodi:guide
       position="-743.12296,-263.83296"
       orientation="0,-1"
       id="guide1741"
       inkscape:locked="false" /><sodipodi:guide
       position="-741.37956,-346.38296"
       orientation="0,-1"
       id="guide1742"
       inkscape:locked="false" /><sodipodi:guide
       position="1429.1541,1557.735"
       orientation="0,793.70079"
       id="guide58"
       inkscape:locked="false" /><sodipodi:guide
       position="1639.1541,1557.735"
       orientation="1122.5197,0"
       id="guide59"
       inkscape:locked="false" /><sodipodi:guide
       position="1639.1541,1260.735"
       orientation="0,-793.70079"
       id="guide60"
       inkscape:locked="false" /><sodipodi:guide
       position="1429.1541,1260.735"
       orientation="-1122.5197,0"
       id="guide61"
       inkscape:locked="false" /><inkscape:page
       x="0"
       y="0"
       width="36.015373"
       height="13.320634"
       id="page2"
       margin="0"
       bleed="0" /></sodipodi:namedview><defs
     id="defs1" /><g
     inkscape:label="Layer 1"
     inkscape:groupmode="layer"
     id="layer1"
     transform="translate(1429.1541,-1544.4143)"><path
       id="path685"
       style="font-size:32.5598px;line-height:1;font-family:'FONTSPRING DEMO - All Round Gothic Bold';-inkscape-font-specification:'FONTSPRING DEMO - All Round Gothic Bold, ';fill:#242424;fill-opacity:1;stroke-width:0.208819;stroke-linecap:round;stroke-linejoin:round"
       d="m -1429.1541,1544.4142 v 3.7796 c 0,1.0347 0.6167,1.526 1.5193,1.526 0.9026,0 1.5188,-0.4913 1.5188,-1.526 v -0.1101 h -1.1007 v 0.1101 c 0,0.3816 -0.1759,0.4987 -0.4181,0.4987 -0.2422,0 -0.4186,-0.1171 -0.4186,-0.4987 v -1.2036 h 1.7172 v -0.9906 h -1.7172 v -1.5854 z m 3.684,0 v 5.2105 h 1.1007 v -1.8789 c 0,-0.5577 0.2937,-0.8145 0.6899,-0.8145 0.411,0 0.6894,0.2421 0.6894,0.8145 v 1.8789 h 1.1012 v -1.8789 c 0,-1.3283 -0.815,-1.8418 -1.5782,-1.8418 -0.3742,0 -0.6821,0.1686 -0.9023,0.4842 v -1.974 z m 12.5838,0 v 1.9812 c -0.2275,-0.3228 -0.5944,-0.4914 -1.0274,-0.4914 -0.8219,0 -1.7611,0.6018 -1.7611,1.864 0,1.1668 0.8075,1.9518 1.9596,1.9518 1.1081,0 1.9296,-0.7264 1.9296,-1.9446 v -3.361 z m 9.7673,1.4459 v 3.6251 h 1.1007 v -0.8124 -2.6732 -0.1395 z m -16.246,0.044 c -1.1448,0 -1.9518,0.8072 -1.9518,1.9079 0,1.1008 0.807,1.9079 1.9518,1.9079 0.9026,0 1.5924,-0.499 1.8273,-1.2475 h -1.1374 c -0.1395,0.1981 -0.3744,0.2641 -0.6899,0.2641 -0.3963,0 -0.7191,-0.1903 -0.8072,-0.616 h 2.7373 v -0.3085 c 0,-1.1007 -0.7853,-1.9079 -1.9301,-1.9079 z m 10.1038,0 c -1.1448,0 -1.9519,0.8072 -1.9519,1.9079 0,1.1008 0.8071,1.9079 1.9519,1.9079 0.9026,0 1.5924,-0.499 1.8272,-1.2475 h -1.1374 c -0.1394,0.1981 -0.3743,0.2646 -0.6898,0.2646 -0.3963,0 -0.7192,-0.1908 -0.8072,-0.6165 h 2.7373 v -0.3085 c 0,-1.1007 -0.7853,-1.9079 -1.9301,-1.9079 z m 3.8969,0 c -0.9026,0 -1.4826,0.5137 -1.4826,1.2475 0,0.8732 0.8218,0.9983 1.3208,1.0717 0.3376,0.051 0.6021,0.073 0.6021,0.3153 0,0.1541 -0.1105,0.2713 -0.4481,0.2713 -0.3008,0 -0.4402,-0.095 -0.4475,-0.2858 h -1.0857 c 0.015,0.6971 0.6163,1.1958 1.5482,1.1958 0.932,0 1.5482,-0.499 1.5482,-1.2475 0,-0.8586 -0.7998,-0.9978 -1.3208,-1.0712 -0.3376,-0.051 -0.6015,-0.081 -0.6015,-0.3008 0,-0.1467 0.1098,-0.2863 0.3814,-0.2863 0.2201,0 0.367,0.095 0.3963,0.2641 h 1.0713 c -0.022,-0.6531 -0.5795,-1.1741 -1.4821,-1.1741 z m 5.9877,0 c -1.1447,0 -1.9518,0.8072 -1.9518,1.9079 0,1.3429 0.9689,1.8495 1.7394,1.8495 0.455,0 0.8216,-0.1691 1.0491,-0.492 v 0.2129 c 0,0.7045 -0.2932,0.9323 -0.8289,0.9323 -0.3669,0 -0.6315,-0.1105 -0.7416,-0.338 h -1.1151 c 0.2201,0.888 0.9393,1.2919 1.8639,1.2919 1.0494,0 1.9224,-0.5358 1.9224,-1.9228 v -1.4971 c 0,-1.1888 -0.7926,-1.9446 -1.9374,-1.9446 z m 4.4473,0 c -1.0714,0 -1.7906,0.6236 -1.7906,1.8418 v 1.8789 h 1.1007 v -1.8789 c 0,-0.5724 0.279,-0.8145 0.6899,-0.8145 0.411,0 0.6899,0.2421 0.6899,0.8145 v 1.8789 h 1.1007 v -1.8789 c 0,-1.2255 -0.7192,-1.8418 -1.7906,-1.8418 z m -24.4357,0.9834 c 0.3816,0 0.6752,0.1616 0.7999,0.5359 h -1.5849 c 0.1101,-0.3669 0.4034,-0.5359 0.785,-0.5359 z m 10.1038,0 c 0.3816,0 0.6751,0.1617 0.7999,0.5359 h -1.5849 c 0.1101,-0.3669 0.4034,-0.5359 0.785,-0.5359 z m -4.4613,0.044 c 0.4991,0 0.8367,0.3596 0.8367,0.8806 0,0.5211 -0.3376,0.8806 -0.8367,0.8806 -0.499,0 -0.8366,-0.3595 -0.8366,-0.8806 0,-0.521 0.3376,-0.8806 0.8366,-0.8806 z m 14.3459,0 c 0.4991,0 0.8367,0.3596 0.8367,0.8806 0,0.5211 -0.3376,0.8222 -0.8367,0.8222 -0.499,0 -0.8366,-0.3011 -0.8366,-0.8222 0,-0.521 0.3376,-0.8806 0.8366,-0.8806 z m -3.192,2.8841 c -0.4036,0 -0.7044,0.3007 -0.7044,0.7043 0,0.4036 0.3008,0.7049 0.7044,0.7049 0.4036,0 0.7043,-0.3013 0.7043,-0.7049 0,-0.4036 -0.3007,-0.7043 -0.7043,-0.7043 z m -8.9297,1.1353 c -0.4036,0 -0.7044,0.3013 -0.7044,0.7049 0,0.4036 0.3008,0.7043 0.7044,0.7043 0.4036,0 0.7049,-0.3007 0.7049,-0.7043 0,-0.4036 -0.3013,-0.7049 -0.7049,-0.7049 z m -5.1,0.2507 v 5.21 h 1.1008 v -1.8785 c 0,-0.5578 0.2936,-0.8149 0.6898,-0.8149 0.411,0 0.6899,0.2425 0.6899,0.8149 v 1.7498 0 c -4e-4,0.028 2e-4,0.056 0,0.084 v 0.045 0 c 0.033,0.3991 0.2456,0.7507 0.5219,0.9668 0.3058,0.2392 0.6745,0.3501 1.0449,0.3556 0.3704,0.01 0.7576,-0.098 1.0744,-0.3597 0.2906,-0.2398 0.4911,-0.6239 0.5224,-1.0588 v 0 -0.081 c 3e-4,-0.013 0,-0.025 0,-0.038 v 0 -3.5062 h -1.1007 l 5e-4,3.5067 v 0 c 0,0.2045 -0.051,0.2652 -0.1245,0.3261 -0.074,0.061 -0.2064,0.1076 -0.3555,0.1054 -0.1491,0 -0.2987,-0.056 -0.3793,-0.1188 -0.081,-0.063 -0.1071,-0.099 -0.1055,-0.2093 v 0 -1.7674 c 0,-1.3283 -0.8145,-1.8422 -1.5776,-1.8422 -0.3743,0 -0.6827,0.1686 -0.9028,0.4842 v -1.9735 z m -10.5962,1.3932 c -1.1521,0 -1.9596,0.7855 -1.9596,1.9523 0,1.2622 0.9467,1.864 1.7539,1.864 0.521,0 0.9322,-0.2496 1.123,-0.6972 v 0.6016 h 1.0123 v -1.7762 c 0,-1.1888 -0.7922,-1.9445 -1.9296,-1.9445 z m 4.2778,0 c -0.9687,0 -1.6289,0.5281 -1.6289,1.6582 v 2.0625 h 1.1007 v -2.0619 c 0,-0.4844 0.22,-0.6315 0.5282,-0.6315 0.3082,0 0.5286,0.1471 0.5286,0.6315 v 0.029 h 1.1007 v -0.022 c -0.01,-1.1448 -0.6607,-1.6655 -1.6293,-1.6655 z m 3.8819,0 c -1.1448,0 -1.9518,0.807 -1.9518,1.9078 0,1.1007 0.807,1.9085 1.9518,1.9085 1.0054,0 1.7393,-0.624 1.8934,-1.5193 h -1.1152 c -0.1247,0.3009 -0.4113,0.4919 -0.7782,0.4919 -0.499,0 -0.8361,-0.3601 -0.8361,-0.8811 0,-0.5211 0.3371,-0.8805 0.8361,-0.8805 0.3669,0 0.6535,0.1911 0.7782,0.4919 h 1.1152 c -0.1541,-0.8953 -0.888,-1.5192 -1.8934,-1.5192 z m 14.6988,0 c -1.1447,0 -1.9518,0.807 -1.9518,1.9078 0,1.1007 0.8071,1.9085 1.9518,1.9085 0.9027,0 1.5925,-0.4995 1.8273,-1.248 h -1.1374 c -0.1394,0.1981 -0.3743,0.2646 -0.6899,0.2646 -0.3962,0 -0.7191,-0.1909 -0.8071,-0.6165 h 2.7373 v -0.3086 c 0,-1.1008 -0.7854,-1.9078 -1.9302,-1.9078 z m -6.0321,0.096 1.2991,3.6251 h 1.3353 l 1.2992,-3.6251 h -1.1524 l -0.8,2.5755 -0.7994,-2.5755 z m 6.0321,0.8878 c 0.3816,0 0.6752,0.1616 0.8,0.5358 h -1.5849 c 0.1101,-0.3669 0.4034,-0.5358 0.7849,-0.5358 z m -22.8663,0.044 c 0.4991,0 0.8367,0.3594 0.8367,0.8805 0,0.521 -0.3376,0.8811 -0.8367,0.8811 -0.499,0 -0.8366,-0.3601 -0.8366,-0.8811 0,-0.5211 0.3376,-0.8805 0.8366,-0.8805 z"
       inkscape:export-filename="logo_1.png"
       inkscape:export-xdpi="200"
       inkscape:export-ydpi="200" /></g></svg>
